<?xml version="1.0" encoding="utf-8"?>
<!-- Generator: Adobe Illustrator 16.0.0, SVG Export Plug-In . SVG Version: 6.00 Build 0)  -->
<!DOCTYPE svg PUBLIC "-//W3C//DTD SVG 1.1//EN" "http://www.w3.org/Graphics/SVG/1.1/DTD/svg11.dtd">
<svg version="1.1" id="Layer_1" xmlns="http://www.w3.org/2000/svg" xmlns:xlink="http://www.w3.org/1999/xlink" x="0px" y="0px"
	 width="155.024px" height="55.148px" viewBox="0 0 155.024 55.148" enable-background="new 0 0 155.024 55.148"
	 xml:space="preserve">
<g>
	<path fill="#15387C" d="M49.757,15.452c2.662-2.881,6.379-4.322,11.149-4.322v4.173c-3.578,0-6.3,1.043-8.168,3.129
		c-1.869,2.087-2.802,5.098-2.802,9.033v15.977h-4.173V27.465C45.763,22.337,47.094,18.333,49.757,15.452"/>
	<g>
		<path fill="#F78425" d="M71.929,4.174v1.43h-4.174V0C70.06,0,71.929,1.869,71.929,4.174"/>
		<path fill="#15387C" d="M67.755,43.442V11.726c2.305,0,4.174,1.868,4.174,4.174v27.542H67.755z"/>
	</g>
	<path fill="#15387C" d="M112.906,11.129c4.014,0,7.144,1.441,9.39,4.322c2.245,2.882,3.368,6.886,3.368,12.014v15.978h-4.112
		V27.465c0-1.112-0.101-2.375-0.299-3.787c-0.199-1.41-0.606-2.742-1.223-3.994s-1.49-2.295-2.623-3.13
		c-1.133-0.835-2.633-1.252-4.501-1.252s-3.368,0.417-4.501,1.252c-1.133,0.835-2.008,1.878-2.623,3.13
		c-0.617,1.252-1.023,2.584-1.223,3.994c-0.199,1.411-0.298,2.674-0.298,3.787v15.978h-4.173V27.465c0-1.112-0.1-2.375-0.299-3.787
		c-0.199-1.41-0.596-2.742-1.191-3.994c-0.597-1.252-1.461-2.295-2.594-3.13c-1.133-0.835-2.634-1.252-4.501-1.252
		c-1.868,0-3.368,0.417-4.501,1.252c-1.133,0.835-2.008,1.878-2.624,3.13s-1.023,2.584-1.222,3.994
		c-0.199,1.411-0.298,2.674-0.298,3.787v15.978h-4.174V27.465c0-5.127,1.123-9.131,3.369-12.014
		c2.244-2.881,5.395-4.322,9.449-4.322c2.465,0,4.591,0.546,6.379,1.639c1.788,1.094,3.22,2.674,4.292,4.74
		c1.073-2.066,2.514-3.646,4.322-4.74C108.305,11.675,110.441,11.129,112.906,11.129"/>
	<path fill="#15387C" d="M149.298,42.661h-9.082c-2.384,0-4.343-0.671-5.877-2.014c-1.535-1.343-2.302-3.261-2.302-5.754V18.825
		c0-2.493,0.767-4.411,2.302-5.754c1.534-1.342,3.493-2.014,5.877-2.014h9.082v2.959h-9.108c-1.649,0-2.804,0.329-3.463,0.987
		c-1.044,1.096-1.566,2.192-1.566,3.287v6.823h10.604v3.041h-10.604v7.289c0,1.093,0.522,2.184,1.566,3.275
		c0.659,0.655,1.813,0.983,3.463,0.983h9.108V42.661z"/>
	<path fill="#15387C" d="M37.944,19.123c-0.771-1.836-1.836-3.434-3.196-4.794c-1.36-1.36-2.935-2.436-4.726-3.23
		c-1.791-0.793-3.706-1.212-5.746-1.258H24.14H2.38c-0.635,0-1.19,0.227-1.666,0.68C0.238,10.975,0,11.519,0,12.152
		c0,1.314,1.066,2.38,2.38,2.38h2.38h12.52h6.656c1.405,0,2.742,0.272,4.012,0.816c1.269,0.544,2.38,1.292,3.332,2.244
		c0.952,0.952,1.7,2.063,2.244,3.332c0.544,1.27,0.816,2.607,0.816,4.012c0,1.451-0.272,2.811-0.816,4.08s-1.292,2.38-2.244,3.332
		c-0.952,0.952-2.063,1.7-3.332,2.244c-1.27,0.544-2.607,0.815-4.012,0.815H17.28H9.304C4.165,35.408,0,39.573,0,44.713v9.06h4.76
		V44.48c0-2.419,1.961-4.38,4.38-4.38h14.796c2.085,0,4.046-0.396,5.882-1.19c1.836-0.793,3.445-1.881,4.828-3.264
		c1.382-1.382,2.47-2.992,3.264-4.828c0.793-1.836,1.19-3.797,1.19-5.882C39.1,22.896,38.715,20.958,37.944,19.123"/>
	<path fill="#F78425" d="M142.534,54.273H9.465v-3.848c0-2.163,1.754-3.917,3.916-3.917h136.917
		C150.298,50.798,146.822,54.273,142.534,54.273"/>
	<g>
		<path fill="#FFFFFF" d="M48.848,52.116c0.24,0.366,0.656,0.535,1.058,0.535c0.444,0,0.994-0.282,0.994-0.832
			c0-1.148-2.46-0.437-2.46-2.382c0-0.586,0.493-1.396,1.692-1.396c0.542,0,1.064,0.113,1.438,0.571l-0.55,0.5
			c-0.169-0.261-0.5-0.437-0.888-0.437c-0.748,0-0.973,0.451-0.973,0.762c0,1.262,2.46,0.507,2.46,2.305
			c0,0.966-0.775,1.544-1.734,1.544c-0.641,0-1.255-0.219-1.593-0.69L48.848,52.116z"/>
		<path fill="#FFFFFF" d="M61.089,48.168h3.222v0.635h-2.545v1.487h2.369v0.635h-2.369v1.6h2.672v0.635h-3.349V48.168z"/>
		<path fill="#FFFFFF" d="M75.432,48.168h0.613l2.136,4.991h-0.79l-0.501-1.233h-2.375l-0.494,1.233h-0.79L75.432,48.168z
			 M76.645,51.333l-0.931-2.291H75.7l-0.945,2.291H76.645z"/>
		<path fill="#FFFFFF" d="M87.301,48.168h1.755c1.276,0,1.601,0.769,1.601,1.396c0,0.635-0.473,1.234-1.227,1.318l1.417,2.277
			h-0.846l-1.27-2.199h-0.754v2.199h-0.677V48.168z M87.978,50.367h0.888c0.536,0,1.072-0.127,1.072-0.804s-0.536-0.804-1.072-0.804
			h-0.888V50.367z"/>
		<path fill="#FFFFFF" d="M102.976,49.247c-0.282-0.367-0.747-0.571-1.206-0.571c-1.12,0-1.86,0.896-1.86,2.03
			c0,1.05,0.697,1.945,1.86,1.945c0.571,0,1.009-0.254,1.305-0.67l0.571,0.431c-0.148,0.204-0.748,0.874-1.89,0.874
			c-1.586,0-2.566-1.325-2.566-2.58c0-1.551,1.064-2.665,2.602-2.665c0.655,0,1.347,0.247,1.748,0.775L102.976,49.247z"/>
		<path fill="#FFFFFF" d="M112.934,48.168h0.677v2.072h2.587v-2.072h0.677v4.991h-0.677v-2.284h-2.587v2.284h-0.677V48.168z"/>
	</g>
	<g>
		<path d="M151.182,40.181h-0.686V39.91h1.66v0.271h-0.686v1.857h-0.289V40.181z"/>
		<path d="M152.499,39.91h0.43l0.677,1.611h0.012l0.671-1.611h0.43v2.128h-0.289v-1.749h-0.006l-0.719,1.749h-0.191l-0.719-1.749
			h-0.006v1.749h-0.289V39.91z"/>
	</g>
</g>
</svg>
