<?xml version="1.0" encoding="UTF-8"?><svg xmlns="http://www.w3.org/2000/svg" xmlns:xlink="http://www.w3.org/1999/xlink" height="227.6" preserveAspectRatio="xMidYMid meet" version="1.0" viewBox="107.1 98.6 211.0 227.6" width="211.0" zoomAndPan="magnify"><g><g id="change1_1"><path d="M 285.574219 244.003906 C 285.027344 283.1875 253.109375 314.785156 213.796875 314.785156 C 213.511719 314.785156 212.386719 314.785156 212.101562 314.785156 C 172.785156 314.785156 140.875 283.1875 140.324219 244.003906 L 140.289062 244.003906 L 140.289062 231.300781 C 140.289062 206.34375 160.519531 186.109375 185.476562 186.109375 L 240.417969 186.109375 C 265.375 186.109375 285.609375 206.34375 285.609375 231.300781 L 285.609375 244.003906 L 285.574219 244.003906" fill="#93afc9"/></g><path d="M 2855.742188 1811.960938 C 2850.273438 1420.125 2531.09375 1104.148438 2137.96875 1104.148438 C 2135.117188 1104.148438 2123.867188 1104.148438 2121.015625 1104.148438 C 1727.851562 1104.148438 1408.75 1420.125 1403.242188 1811.960938 L 1402.890625 1811.960938 L 1402.890625 1938.992188 C 1402.890625 2188.5625 1605.195312 2390.90625 1854.765625 2390.90625 L 2404.179688 2390.90625 C 2653.75 2390.90625 2856.09375 2188.5625 2856.09375 1938.992188 L 2856.09375 1811.960938 Z M 2855.742188 1811.960938" fill="none" stroke="#2f3132" stroke-linecap="round" stroke-linejoin="round" stroke-miterlimit="10" stroke-width="60" transform="matrix(.1 0 0 -.1 0 425.2)"/><g id="change1_2"><path d="M 2666.914062 1811.960938 C 2662.890625 1420.125 2426.71875 1104.148438 2135.78125 1104.148438 C 2133.671875 1104.148438 2125.351562 1104.148438 2123.242188 1104.148438 C 1832.304688 1104.148438 1596.171875 1420.125 1592.109375 1811.960938" fill="#93afc9" stroke="#2f3132" stroke-linecap="round" stroke-linejoin="round" stroke-miterlimit="10" stroke-width="60" transform="matrix(.1 0 0 -.1 0 425.2)"/></g><g id="change2_1"><path d="M 233.464844 242.644531 C 233.308594 280.90625 224.292969 311.765625 213.1875 311.765625 C 213.109375 311.765625 212.789062 311.765625 212.710938 311.765625 C 201.601562 311.765625 192.589844 280.90625 192.433594 242.644531 L 192.425781 242.644531 L 192.425781 230.238281 C 192.425781 205.867188 198.136719 186.109375 205.1875 186.109375 L 220.710938 186.109375 C 227.757812 186.109375 233.476562 205.867188 233.476562 230.238281 L 233.476562 242.644531 L 233.464844 242.644531" fill="#fff"/></g><g id="change3_1"><path d="M 216.914062 242.644531 C 216.882812 280.90625 215.140625 311.765625 212.996094 311.765625 C 212.980469 311.765625 212.917969 311.765625 212.90625 311.765625 C 210.757812 311.765625 209.015625 280.90625 208.984375 242.644531 L 208.980469 242.644531 L 208.980469 230.238281 C 208.980469 205.867188 210.085938 186.109375 211.449219 186.109375 L 214.449219 186.109375 C 215.8125 186.109375 216.917969 205.867188 216.917969 230.238281 L 216.917969 242.644531 L 216.914062 242.644531" fill="#2f3132"/></g><g id="change2_2"><path d="M 258.671875 157.09375 L 255.136719 157.09375 L 255.136719 138.195312 C 255.136719 123.703125 243.390625 111.957031 228.898438 111.957031 L 197 111.957031 C 182.507812 111.957031 170.761719 123.703125 170.761719 138.195312 L 170.761719 157.09375 L 167.230469 157.09375 C 164.019531 157.09375 161.417969 159.691406 161.417969 162.902344 L 161.417969 172.210938 L 161.421875 172.210938 C 161.492188 177.25 165.597656 181.3125 170.652344 181.3125 C 170.683594 181.3125 170.765625 181.3125 170.824219 181.3125 C 171.714844 203.554688 190 221.3125 212.457031 221.3125 C 212.621094 221.3125 213.277344 221.3125 213.441406 221.3125 C 235.898438 221.3125 254.183594 203.554688 255.074219 181.3125 C 255.128906 181.3125 255.21875 181.3125 255.246094 181.3125 C 260.300781 181.3125 264.40625 177.25 264.476562 172.210938 L 264.480469 172.210938 L 264.480469 162.902344 C 264.480469 159.691406 261.878906 157.09375 258.671875 157.09375" fill="#fff"/></g><path d="M 2586.71875 2681.0625 L 2551.367188 2681.0625 L 2551.367188 2870.046875 C 2551.367188 3014.96875 2433.90625 3132.429688 2288.984375 3132.429688 L 1970 3132.429688 C 1825.078125 3132.429688 1707.617188 3014.96875 1707.617188 2870.046875 L 1707.617188 2681.0625 L 1672.304688 2681.0625 C 1640.195312 2681.0625 1614.179688 2655.085938 1614.179688 2622.976562 L 1614.179688 2529.890625 L 1614.21875 2529.890625 C 1614.921875 2479.5 1655.976562 2438.875 1706.523438 2438.875 C 1706.835938 2438.875 1707.65625 2438.875 1708.242188 2438.875 C 1717.148438 2216.453125 1900 2038.875 2124.570312 2038.875 C 2126.210938 2038.875 2132.773438 2038.875 2134.414062 2038.875 C 2358.984375 2038.875 2541.835938 2216.453125 2550.742188 2438.875 C 2551.289062 2438.875 2552.1875 2438.875 2552.460938 2438.875 C 2603.007812 2438.875 2644.0625 2479.5 2644.765625 2529.890625 L 2644.804688 2529.890625 L 2644.804688 2622.976562 C 2644.804688 2655.085938 2618.789062 2681.0625 2586.71875 2681.0625 Z M 2586.71875 2681.0625" fill="none" stroke="#2f3132" stroke-linecap="round" stroke-linejoin="round" stroke-miterlimit="10" stroke-width="60" transform="matrix(.1 0 0 -.1 0 425.2)"/><g id="change3_2"><path d="M 221.417969 230.296875 C 221.355469 225.726562 217.632812 222.042969 213.050781 222.042969 C 213.015625 222.042969 212.882812 222.042969 212.851562 222.042969 C 208.265625 222.042969 204.546875 225.726562 204.484375 230.296875 L 204.476562 230.296875 L 204.476562 238.734375 C 204.476562 241.644531 206.835938 244.003906 209.746094 244.003906 L 216.152344 244.003906 C 219.0625 244.003906 221.421875 241.644531 221.421875 238.734375 L 221.421875 230.296875 L 221.417969 230.296875" fill="#2f3132"/></g><path d="M 1912.070312 2623.054688 L 1912.070312 2574.695312" fill="none" stroke="#2f3132" stroke-linecap="round" stroke-linejoin="round" stroke-miterlimit="10" stroke-width="60" transform="matrix(.1 0 0 -.1 0 425.2)"/><path d="M 2346.953125 2623.054688 L 2346.953125 2574.695312" fill="none" stroke="#2f3132" stroke-linecap="round" stroke-linejoin="round" stroke-miterlimit="10" stroke-width="60" transform="matrix(.1 0 0 -.1 0 425.2)"/><g id="change2_3"><path d="M 220 205.503906 C 216.105469 205.503906 212.949219 208.660156 212.949219 212.554688 C 212.949219 208.660156 209.792969 205.503906 205.898438 205.503906 L 130.902344 205.503906 L 130.902344 306.757812 C 130.902344 301.835938 147.515625 297.847656 168.003906 297.847656 C 186.757812 297.847656 202.253906 301.1875 204.746094 305.527344 C 204.792969 305.601562 204.824219 305.671875 204.859375 305.742188 C 204.886719 305.792969 204.910156 305.851562 204.933594 305.902344 C 204.984375 306.027344 205.027344 306.152344 205.054688 306.28125 C 205.058594 306.3125 205.0625 306.34375 205.066406 306.371094 C 205.082031 306.472656 205.109375 306.5625 205.109375 306.664062 C 205.109375 306.695312 205.105469 306.726562 205.105469 306.757812 L 220.789062 306.757812 C 220.789062 306.726562 220.789062 306.695312 220.789062 306.664062 C 220.789062 306.5625 220.816406 306.472656 220.832031 306.371094 C 220.835938 306.34375 220.839844 306.3125 220.84375 306.28125 C 220.871094 306.152344 220.910156 306.027344 220.964844 305.902344 C 220.984375 305.851562 221.011719 305.792969 221.039062 305.742188 C 221.074219 305.671875 221.105469 305.601562 221.148438 305.527344 C 223.644531 301.1875 239.140625 297.847656 257.894531 297.847656 C 278.382812 297.847656 294.992188 301.835938 294.992188 306.757812 L 294.992188 205.503906 L 220 205.503906" fill="#fff"/></g><path d="M 2200 2196.960938 C 2161.054688 2196.960938 2129.492188 2165.398438 2129.492188 2126.453125 C 2129.492188 2165.398438 2097.929688 2196.960938 2058.984375 2196.960938 L 1309.023438 2196.960938 L 1309.023438 1184.421875 C 1309.023438 1233.640625 1475.15625 1273.523438 1680.039062 1273.523438 C 1867.578125 1273.523438 2022.539062 1240.125 2047.460938 1196.726562 C 2047.929688 1195.984375 2048.242188 1195.28125 2048.59375 1194.578125 C 2048.867188 1194.070312 2049.101562 1193.484375 2049.335938 1192.976562 C 2049.84375 1191.726562 2050.273438 1190.476562 2050.546875 1189.1875 C 2050.585938 1188.875 2050.625 1188.5625 2050.664062 1188.289062 C 2050.820312 1187.273438 2051.09375 1186.375 2051.09375 1185.359375 C 2051.09375 1185.046875 2051.054688 1184.734375 2051.054688 1184.421875 L 2207.890625 1184.421875 C 2207.890625 1184.734375 2207.890625 1185.046875 2207.890625 1185.359375 C 2207.890625 1186.375 2208.164062 1187.273438 2208.320312 1188.289062 C 2208.359375 1188.5625 2208.398438 1188.875 2208.4375 1189.1875 C 2208.710938 1190.476562 2209.101562 1191.726562 2209.648438 1192.976562 C 2209.84375 1193.484375 2210.117188 1194.070312 2210.390625 1194.578125 C 2210.742188 1195.28125 2211.054688 1195.984375 2211.484375 1196.726562 C 2236.445312 1240.125 2391.40625 1273.523438 2578.945312 1273.523438 C 2783.828125 1273.523438 2949.921875 1233.640625 2949.921875 1184.421875 L 2949.921875 2196.960938 Z M 2200 2196.960938" fill="none" stroke="#2f3132" stroke-linecap="round" stroke-linejoin="round" stroke-miterlimit="10" stroke-width="60" transform="matrix(.1 0 0 -.1 0 425.2)"/><g id="change4_1"><path d="M 205.898438 221.917969 L 130.902344 221.917969 L 130.902344 323.171875 C 130.902344 318.25 147.515625 314.261719 168.003906 314.261719 C 186.757812 314.261719 202.253906 317.601562 204.746094 321.941406 C 204.792969 322.011719 204.824219 322.085938 204.859375 322.152344 C 204.886719 322.210938 204.910156 322.261719 204.933594 322.316406 C 204.984375 322.4375 205.027344 322.566406 205.054688 322.691406 C 205.058594 322.726562 205.0625 322.757812 205.066406 322.785156 C 205.082031 322.886719 205.109375 322.980469 205.109375 323.078125 C 205.109375 323.109375 205.105469 323.140625 205.105469 323.171875 L 212.949219 323.171875 L 212.949219 228.96875 C 212.949219 225.074219 209.792969 221.917969 205.898438 221.917969" fill="#57c7c8"/></g><path d="M 2058.984375 2032.820312 L 1309.023438 2032.820312 L 1309.023438 1020.28125 C 1309.023438 1069.5 1475.15625 1109.382812 1680.039062 1109.382812 C 1867.578125 1109.382812 2022.539062 1075.984375 2047.460938 1032.585938 C 2047.929688 1031.882812 2048.242188 1031.140625 2048.59375 1030.476562 C 2048.867188 1029.890625 2049.101562 1029.382812 2049.335938 1028.835938 C 2049.84375 1027.625 2050.273438 1026.335938 2050.546875 1025.085938 C 2050.585938 1024.734375 2050.625 1024.421875 2050.664062 1024.148438 C 2050.820312 1023.132812 2051.09375 1022.195312 2051.09375 1021.21875 C 2051.09375 1020.90625 2051.054688 1020.59375 2051.054688 1020.28125 L 2129.492188 1020.28125 L 2129.492188 1962.3125 C 2129.492188 2001.257812 2097.929688 2032.820312 2058.984375 2032.820312 Z M 2058.984375 2032.820312" fill="none" stroke="#2f3132" stroke-linecap="round" stroke-linejoin="round" stroke-miterlimit="10" stroke-width="60" transform="matrix(.1 0 0 -.1 0 425.2)"/><g id="change4_2"><path d="M 220 221.917969 L 294.992188 221.917969 L 294.992188 323.171875 C 294.992188 318.25 278.382812 314.261719 257.894531 314.261719 C 239.140625 314.261719 223.644531 317.601562 221.148438 321.941406 C 221.105469 322.011719 221.074219 322.085938 221.039062 322.152344 C 221.011719 322.210938 220.984375 322.261719 220.964844 322.316406 C 220.910156 322.4375 220.871094 322.566406 220.84375 322.691406 C 220.839844 322.726562 220.835938 322.757812 220.832031 322.785156 C 220.816406 322.886719 220.789062 322.980469 220.789062 323.078125 C 220.789062 323.109375 220.789062 323.140625 220.789062 323.171875 L 212.949219 323.171875 L 212.949219 228.96875 C 212.949219 225.074219 216.105469 221.917969 220 221.917969" fill="#57c7c8"/></g><path d="M 2200 2032.820312 L 2949.921875 2032.820312 L 2949.921875 1020.28125 C 2949.921875 1069.5 2783.828125 1109.382812 2578.945312 1109.382812 C 2391.40625 1109.382812 2236.445312 1075.984375 2211.484375 1032.585938 C 2211.054688 1031.882812 2210.742188 1031.140625 2210.390625 1030.476562 C 2210.117188 1029.890625 2209.84375 1029.382812 2209.648438 1028.835938 C 2209.101562 1027.625 2208.710938 1026.335938 2208.4375 1025.085938 C 2208.398438 1024.734375 2208.359375 1024.421875 2208.320312 1024.148438 C 2208.164062 1023.132812 2207.890625 1022.195312 2207.890625 1021.21875 C 2207.890625 1020.90625 2207.890625 1020.59375 2207.890625 1020.28125 L 2129.492188 1020.28125 L 2129.492188 1962.3125 C 2129.492188 2001.257812 2161.054688 2032.820312 2200 2032.820312 Z M 2200 2032.820312" fill="none" stroke="#2f3132" stroke-linecap="round" stroke-linejoin="round" stroke-miterlimit="10" stroke-width="60" transform="matrix(.1 0 0 -.1 0 425.2)"/><g id="change2_4"><path d="M 227.121094 236.09375 L 280.820312 236.09375 L 280.820312 301.703125 C 273.433594 300.503906 265.429688 300.089844 257.894531 300.089844 C 247.976562 300.089844 236.609375 300.824219 227.121094 303.394531 L 227.121094 236.09375" fill="#fff"/></g><g id="change2_5"><path d="M 198.773438 236.09375 L 145.074219 236.09375 L 145.074219 301.703125 C 152.460938 300.503906 160.46875 300.089844 168.003906 300.089844 C 177.921875 300.089844 189.285156 300.824219 198.773438 303.394531 L 198.773438 236.09375" fill="#fff"/></g><path d="M 2129.492188 1904.890625 L 2129.492188 1148.171875" fill="none" stroke="#2f3132" stroke-linecap="round" stroke-linejoin="round" stroke-miterlimit="10" stroke-width="60" transform="matrix(.1 0 0 -.1 0 425.2)"/><path d="M 2110.625 2385.4375 C 2132.1875 2363.875 2167.03125 2363.875 2188.59375 2385.4375" fill="none" stroke="#2f3132" stroke-linecap="round" stroke-linejoin="round" stroke-miterlimit="10" stroke-width="60" transform="matrix(.1 0 0 -.1 0 425.2)"/><path d="M 2110.625 2385.4375 L 2110.625 2520.984375" fill="none" stroke="#2f3132" stroke-linecap="round" stroke-linejoin="round" stroke-miterlimit="10" stroke-width="60" transform="matrix(.1 0 0 -.1 0 425.2)"/><g id="change3_3"><path d="M 255.136719 157.09375 L 255.136719 139.214844 C 255.136719 124.726562 243.390625 112.976562 228.898438 112.976562 L 197 112.976562 C 182.507812 112.976562 170.761719 124.726562 170.761719 139.214844 L 170.761719 157.09375 L 225.449219 153.453125 L 234.699219 139.863281 L 244.199219 153.453125 L 255.136719 157.09375" fill="#2f3132"/></g><path d="M 2551.367188 2681.0625 L 2551.367188 2859.851562 C 2551.367188 3004.734375 2433.90625 3122.234375 2288.984375 3122.234375 L 1970 3122.234375 C 1825.078125 3122.234375 1707.617188 3004.734375 1707.617188 2859.851562 L 1707.617188 2681.0625 L 2254.492188 2717.46875 L 2346.992188 2853.367188 L 2441.992188 2717.46875 Z M 2551.367188 2681.0625" fill="none" stroke="#2f3132" stroke-linecap="round" stroke-linejoin="round" stroke-miterlimit="10" stroke-width="60" transform="matrix(.1 0 0 -.1 0 425.2)"/><path d="M 2443.671875 3087.507812 C 2468.554688 3142.3125 2444.375 3206.804688 2389.570312 3231.726562" fill="none" stroke="#2f3132" stroke-linecap="round" stroke-linejoin="round" stroke-miterlimit="10" stroke-width="60" transform="matrix(.1 0 0 -.1 0 425.2)"/><path d="M 2443.671875 3087.507812 C 2503.203125 3087.507812 2551.367188 3135.671875 2551.367188 3195.203125" fill="none" stroke="#2f3132" stroke-linecap="round" stroke-linejoin="round" stroke-miterlimit="10" stroke-width="60" transform="matrix(.1 0 0 -.1 0 425.2)"/><g id="change2_6"><path d="M 289.132812 253.707031 C 280.476562 253.824219 273.5 260.871094 273.5 269.558594 C 273.5 269.617188 273.5 269.867188 273.5 269.929688 C 273.5 278.613281 280.476562 285.660156 289.132812 285.78125 L 289.132812 285.789062 L 305.113281 285.789062 C 310.625 285.789062 315.09375 281.320312 315.09375 275.808594 L 315.09375 263.675781 C 315.09375 258.164062 310.625 253.699219 305.113281 253.699219 L 289.132812 253.699219 L 289.132812 253.707031" fill="#fff"/></g><path d="M 2891.328125 1714.929688 C 2804.765625 1713.757812 2735 1643.289062 2735 1556.414062 C 2735 1555.828125 2735 1553.328125 2735 1552.703125 C 2735 1465.867188 2804.765625 1395.398438 2891.328125 1394.1875 L 2891.328125 1394.109375 L 3051.132812 1394.109375 C 3106.25 1394.109375 3150.9375 1438.796875 3150.9375 1493.914062 L 3150.9375 1615.242188 C 3150.9375 1670.359375 3106.25 1715.007812 3051.132812 1715.007812 L 2891.328125 1715.007812 Z M 2891.328125 1714.929688" fill="none" stroke="#2f3132" stroke-linecap="round" stroke-linejoin="round" stroke-miterlimit="10" stroke-width="60" transform="matrix(.1 0 0 -.1 0 425.2)"/><g id="change2_7"><path d="M 136.070312 253.707031 C 144.722656 253.824219 151.699219 260.871094 151.699219 269.558594 C 151.699219 269.617188 151.699219 269.867188 151.699219 269.929688 C 151.699219 278.613281 144.722656 285.660156 136.070312 285.78125 L 136.070312 285.789062 L 120.085938 285.789062 C 114.574219 285.789062 110.105469 281.320312 110.105469 275.808594 L 110.105469 263.675781 C 110.105469 258.164062 114.574219 253.699219 120.085938 253.699219 L 136.070312 253.699219 L 136.070312 253.707031" fill="#fff"/></g><path d="M 1360.703125 1714.929688 C 1447.226562 1713.757812 1516.992188 1643.289062 1516.992188 1556.414062 C 1516.992188 1555.828125 1516.992188 1553.328125 1516.992188 1552.703125 C 1516.992188 1465.867188 1447.226562 1395.398438 1360.703125 1394.1875 L 1360.703125 1394.109375 L 1200.859375 1394.109375 C 1145.742188 1394.109375 1101.054688 1438.796875 1101.054688 1493.914062 L 1101.054688 1615.242188 C 1101.054688 1670.359375 1145.742188 1715.007812 1200.859375 1715.007812 L 1360.703125 1715.007812 Z M 1360.703125 1714.929688" fill="none" stroke="#2f3132" stroke-linecap="round" stroke-linejoin="round" stroke-miterlimit="10" stroke-width="60" transform="matrix(.1 0 0 -.1 0 425.2)"/></g></svg>